<?xml version="1.0" encoding="UTF-8"?>
<svg width="88px" height="88px" viewBox="0 0 88 88" version="1.1" xmlns="http://www.w3.org/2000/svg" xmlns:xlink="http://www.w3.org/1999/xlink">
    <!-- Generator: Sketch 58 (84663) - https://sketch.com -->
    <title>Group 3</title>
    <desc>Created with Sketch.</desc>
    <g id="tsunami" stroke="none" stroke-width="1" fill="none" fill-rule="evenodd">
        <g id="Group-3">
            <circle id="Oval" fill="#FFF6E3" cx="44" cy="44" r="44"></circle>
            <path d="M41.1875,26 L46.8125,26 C47.7476562,26 48.5,26.7523437 48.5,27.6875 L48.5,39.5 L54.6664062,39.5 C55.9179687,39.5 56.54375,41.0117187 55.6578125,41.8976562 L44.9632812,52.5992187 C44.4359375,53.1265625 43.5710937,53.1265625 43.04375,52.5992187 L32.3351562,41.8976562 C31.4492188,41.0117187 32.075,39.5 33.3265625,39.5 L39.5,39.5 L39.5,27.6875 C39.5,26.7523437 40.2523437,26 41.1875,26 Z M62,52.4375 L62,60.3125 C62,61.2476562 61.2476562,62 60.3125,62 L27.6875,62 C26.7523438,62 26,61.2476562 26,60.3125 L26,52.4375 C26,51.5023437 26.7523438,50.75 27.6875,50.75 L38.0023438,50.75 L41.4476563,54.1953125 C42.8609375,55.6085937 45.1390625,55.6085937 46.5523437,54.1953125 L49.9976562,50.75 L60.3125,50.75 C61.2476562,50.75 62,51.5023437 62,52.4375 Z M53.28125,58.625 C53.28125,57.8515625 52.6484375,57.21875 51.875,57.21875 C51.1015625,57.21875 50.46875,57.8515625 50.46875,58.625 C50.46875,59.3984375 51.1015625,60.03125 51.875,60.03125 C52.6484375,60.03125 53.28125,59.3984375 53.28125,58.625 Z M57.78125,58.625 C57.78125,57.8515625 57.1484375,57.21875 56.375,57.21875 C55.6015625,57.21875 54.96875,57.8515625 54.96875,58.625 C54.96875,59.3984375 55.6015625,60.03125 56.375,60.03125 C57.1484375,60.03125 57.78125,59.3984375 57.78125,58.625 Z" id="Shape" fill="#38A2BF" fill-rule="nonzero"></path>
        </g>
    </g>
</svg>